<svg id="bsb_logo_small" xmlns="http://www.w3.org/2000/svg" width="228" height="30" viewBox="0 0 228 30">
  <path id="Pfad_1" data-name="Pfad 1" d="M79.478.651h4.727c1.88,0,3.586.66,3.586,2.748A2.542,2.542,0,0,1,85.85,5.912v.033a2.623,2.623,0,0,1,2.364,2.733c0,1.068-.376,3.188-4.009,3.188H79.478Zm1.064,4.916h3.663c1.708,0,2.522-.848,2.522-1.9,0-1.4-.861-2.106-2.522-2.106H80.542Zm0,5.389h3.663c1.583.017,2.944-.518,2.944-2.309,0-1.431-1.08-2.167-2.944-2.167H80.542Z" transform="translate(58.749 0.484)" fill="#4fb15d"/>
  <path id="Pfad_2" data-name="Pfad 2" d="M85.686.651h.986V2.237h-.986Zm0,3.11h.986v8.107h-.986Z" transform="translate(63.337 0.484)" fill="#4fb15d"/>
  <rect id="Rechteck_8" data-name="Rechteck 8" width="0.986" height="11.217" transform="translate(152.35 1.134)" fill="#4fb15d"/>
  <path id="Pfad_3" data-name="Pfad 3" d="M96.77,11.868h-.908V10.329h-.031a3.2,3.2,0,0,1-2.88,1.775c-2.457,0-3.633-1.995-3.633-4.287s1.176-4.289,3.633-4.289a2.878,2.878,0,0,1,2.8,1.775h.031V.651h.986Zm-3.819-.6c2.1,0,2.833-1.776,2.833-3.455s-.736-3.459-2.833-3.459c-1.878,0-2.645,1.776-2.645,3.459s.767,3.455,2.645,3.455" transform="translate(66.023 0.484)" fill="#4fb15d"/>
  <path id="Pfad_4" data-name="Pfad 4" d="M101.5,10.54h-.908V9.08h-.033a3,3,0,0,1-2.788,1.7c-2.033,0-2.831-1.194-2.831-3.08V2.433h.986v5.28c.045,1.461.595,2.23,2.16,2.23,1.691,0,2.428-1.6,2.428-3.253V2.433h.986Z" transform="translate(70.179 1.813)" fill="#4fb15d"/>
  <path id="Pfad_5" data-name="Pfad 5" d="M100.056,2.534h.986v1.4h.031A2.737,2.737,0,0,1,103.656,2.3c2.271,0,2.96,1.194,2.96,3.125v5.218h-.986V5.582c0-1.4-.456-2.452-2.052-2.452a2.555,2.555,0,0,0-2.536,2.782v4.729h-.986Z" transform="translate(73.96 1.711)" fill="#4fb15d"/>
  <path id="Pfad_6" data-name="Pfad 6" d="M112.16,9.98c-.014,2.419-.939,3.895-3.584,3.895-1.612,0-3.209-.722-3.35-2.45h.986a2.122,2.122,0,0,0,2.364,1.618c1.817,0,2.6-1.084,2.6-3.062v-1.1h-.033a2.8,2.8,0,0,1-2.567,1.665c-2.583,0-3.649-1.853-3.649-4.162,0-2.232,1.317-4.085,3.649-4.085a2.837,2.837,0,0,1,2.567,1.633h.033v-1.4h.984Zm-.984-3.488c0-1.586-.737-3.363-2.6-3.363-1.878,0-2.661,1.682-2.661,3.363,0,1.635.845,3.221,2.661,3.221,1.706,0,2.6-1.572,2.6-3.221" transform="translate(77.56 1.714)" fill="#4fb15d"/>
  <path id="Pfad_7" data-name="Pfad 7" d="M113.027,2.534h.908V3.9h.047a2.824,2.824,0,0,1,2.645-1.6,2.246,2.246,0,0,1,2.318,1.586A2.733,2.733,0,0,1,121.514,2.3c1.767,0,2.677.927,2.677,2.843v5.5H123.2V5.188c0-1.333-.5-2.057-1.91-2.057-1.708,0-2.193,1.413-2.193,2.923v4.588h-.986v-5.5c.016-1.1-.438-2.01-1.69-2.01-1.706,0-2.4,1.288-2.412,2.986v4.525h-.986Z" transform="translate(83.548 1.711)" fill="#4fb15d"/>
  <path id="Pfad_8" data-name="Pfad 8" d="M120.8.651h.986V2.237H120.8Zm0,3.11h.986v8.107H120.8Z" transform="translate(89.296 0.484)" fill="#4fb15d"/>
  <path id="Pfad_9" data-name="Pfad 9" d="M124.649,3.473h1.644v.834h-1.644V9.772c0,.644.094,1.021.8,1.07a7.224,7.224,0,0,0,.845-.049v.85c-.3,0-.579.03-.877.03-1.315,0-1.769-.44-1.753-1.822V4.307h-1.409V3.473h1.409V1.037h.986Z" transform="translate(90.368 0.772)" fill="#4fb15d"/>
  <path id="Pfad_10" data-name="Pfad 10" d="M79.478,10.052h1.064v10.3h6.263v.913H79.478Z" transform="translate(58.749 7.488)" fill="#4fb15d"/>
  <path id="Pfad_11" data-name="Pfad 11" d="M85.168,16.255c.016,1.445.769,3.19,2.661,3.19a2.463,2.463,0,0,0,2.537-2.075h.988a3.3,3.3,0,0,1-3.525,2.905c-2.565,0-3.647-1.979-3.647-4.287,0-2.136,1.082-4.289,3.647-4.289,2.6,0,3.633,2.279,3.555,4.556Zm5.23-.832a2.72,2.72,0,0,0-2.569-2.891c-1.61,0-2.5,1.413-2.661,2.891Z" transform="translate(62.225 8.715)" fill="#4fb15d"/>
  <path id="Pfad_12" data-name="Pfad 12" d="M89.408,10.052h.986v1.586h-.986Zm0,3.11h.986v8.107h-.986Z" transform="translate(66.089 7.488)" fill="#4fb15d"/>
  <path id="Pfad_13" data-name="Pfad 13" d="M98.578,21.269h-.906V19.73h-.033a3.2,3.2,0,0,1-2.88,1.775c-2.457,0-3.631-1.995-3.631-4.287s1.174-4.289,3.631-4.289a2.878,2.878,0,0,1,2.8,1.775h.033v-4.65h.984Zm-3.819-.6c2.1,0,2.835-1.776,2.835-3.455s-.737-3.459-2.835-3.459c-1.878,0-2.645,1.776-2.645,3.459s.767,3.455,2.645,3.455" transform="translate(67.36 7.488)" fill="#4fb15d"/>
  <path id="Pfad_14" data-name="Pfad 14" d="M97.529,16.255c.016,1.445.769,3.19,2.661,3.19a2.463,2.463,0,0,0,2.537-2.075h.988a3.3,3.3,0,0,1-3.525,2.905c-2.565,0-3.647-1.979-3.647-4.287,0-2.136,1.082-4.289,3.647-4.289,2.6,0,3.633,2.279,3.555,4.556Zm5.23-.832a2.72,2.72,0,0,0-2.569-2.891c-1.61,0-2.5,1.413-2.661,2.891Z" transform="translate(71.363 8.715)" fill="#4fb15d"/>
  <path id="Pfad_15" data-name="Pfad 15" d="M101.764,11.935h.986v1.4h.031a2.737,2.737,0,0,1,2.583-1.635c2.271,0,2.96,1.194,2.96,3.125v5.218h-.986V14.983c0-1.4-.456-2.452-2.052-2.452a2.555,2.555,0,0,0-2.536,2.782v4.729h-.986Z" transform="translate(75.222 8.715)" fill="#4fb15d"/>
  <path id="Pfad_16" data-name="Pfad 16" d="M111.883,14.306a1.863,1.863,0,0,0-2.115-1.776c-.877,0-1.908.347-1.908,1.4,0,.879,1,1.2,1.673,1.366l1.315.3a2.373,2.373,0,0,1,2.3,2.246c0,1.761-1.739,2.436-3.242,2.436-1.878,0-3.162-.879-3.318-2.86h.986a2.132,2.132,0,0,0,2.381,2.028c.924,0,2.207-.408,2.207-1.539,0-.944-.878-1.256-1.769-1.476l-1.27-.283c-1.284-.347-2.254-.785-2.254-2.167,0-1.651,1.612-2.279,3.037-2.279a2.651,2.651,0,0,1,2.96,2.607Z" transform="translate(78.79 8.715)" fill="#4fb15d"/>
  <path id="Pfad_17" data-name="Pfad 17" d="M117.315,14.481a2.2,2.2,0,0,0-2.285-1.949c-1.9,0-2.835,1.729-2.835,3.457s.939,3.457,2.835,3.457a2.412,2.412,0,0,0,2.348-2.31h.986a3.291,3.291,0,0,1-3.334,3.141c-2.475,0-3.823-1.963-3.823-4.287s1.348-4.289,3.823-4.289a3.025,3.025,0,0,1,3.271,2.782Z" transform="translate(82.203 8.715)" fill="#4fb15d"/>
  <path id="Pfad_18" data-name="Pfad 18" d="M116.393,10.052h.986v4.509h.031a2.737,2.737,0,0,1,2.583-1.635c2.271,0,2.96,1.194,2.96,3.125v5.218h-.986V16.21c0-1.4-.456-2.452-2.052-2.452a2.556,2.556,0,0,0-2.536,2.782v4.729h-.986Z" transform="translate(86.036 7.488)" fill="#4fb15d"/>
  <path id="Pfad_19" data-name="Pfad 19" d="M121.6,14.416c.092-1.9,1.424-2.717,3.271-2.717,1.424,0,2.974.44,2.974,2.607v4.3a.527.527,0,0,0,.579.6.934.934,0,0,0,.315-.063v.832a2.706,2.706,0,0,1-.642.063c-1,0-1.16-.565-1.16-1.413h-.031a3.076,3.076,0,0,1-2.943,1.649c-1.489,0-2.71-.738-2.71-2.373,0-2.275,2.209-2.356,4.338-2.607.814-.092,1.268-.2,1.268-1.1,0-1.335-.955-1.666-2.113-1.666-1.221,0-2.129.567-2.16,1.886Zm5.259,1.194h-.031c-.125.237-.563.316-.83.361-1.675.3-3.757.283-3.757,1.869a1.684,1.684,0,0,0,1.8,1.6,2.6,2.6,0,0,0,2.817-2.546Z" transform="translate(89.63 8.715)" fill="#4fb15d"/>
  <path id="Pfad_20" data-name="Pfad 20" d="M129.856,13.995h-1.6v7.273h-.984V13.995h-1.379v-.834h1.379v-.736c-.017-1.4.374-2.373,1.957-2.373a5.175,5.175,0,0,1,.83.063v.848a4.03,4.03,0,0,0-.722-.079c-1.1,0-1.063.691-1.08,1.57v.707h1.6Z" transform="translate(93.058 7.488)" fill="#4fb15d"/>
  <path id="Pfad_21" data-name="Pfad 21" d="M131.168,12.874h1.645v.834h-1.645v5.465c0,.644.094,1.021.8,1.07a7.254,7.254,0,0,0,.847-.049v.85c-.3,0-.581.03-.878.03-1.315,0-1.769-.44-1.753-1.822V13.708h-1.409v-.834h1.409V10.438h.986Z" transform="translate(95.187 7.776)" fill="#4fb15d"/>
  <path id="Pfad_22" data-name="Pfad 22" d="M0,.268V29.081H28.716Z" transform="translate(0 0.199)" fill="#09552f"/>
  <path id="Pfad_23" data-name="Pfad 23" d="M24.71.391H40.34c7.517,0,9.115,4.251,9.115,7.179a5.9,5.9,0,0,1-3.517,5.614,6.983,6.983,0,0,1,4.953,7.139c0,5.736-4.953,8.7-9.99,8.7H24.71Zm8.8,11.149h4.637c1.84,0,3-.522,3-2.366,0-1.445-1.2-1.965-3-1.965H33.505Zm0,10.669h5.157c1.84,0,3.437-.522,3.437-2.727,0-1.686-1-2.607-3.077-2.607H33.505Z" transform="translate(18.265 0.291)" fill="#09552f"/>
  <path id="Pfad_24" data-name="Pfad 24" d="M49.5,19.692a5.307,5.307,0,0,0,.32,1.885c.64,1.724,2.558,2.085,4.2,2.085,1.438,0,3.637-.482,3.637-2.607,0-1.483-1.238-1.885-6.155-3.288-4.518-1.284-9.675-2.529-9.675-8.3C41.82,2.848,47.457,0,53.334,0,59.529,0,65,2.368,65.244,9.344H56.93a2.191,2.191,0,0,0-1.038-2.286,4.546,4.546,0,0,0-2.6-.722c-1.2,0-3.158.321-3.158,1.925.16,2.045,4.237,2.487,8.275,3.61s8.033,3.008,8.033,8.263c0,7.46-6.835,9.866-13.19,9.866C50.015,30,40.782,28.836,40.7,19.692Z" transform="translate(30.086 0)" fill="#09552f"/>
  <path id="Pfad_25" data-name="Pfad 25" d="M57.06.391H72.69C80.205.391,81.8,4.642,81.8,7.57a5.9,5.9,0,0,1-3.517,5.614,6.984,6.984,0,0,1,4.955,7.139c0,5.736-4.955,8.7-9.992,8.7H57.06Zm8.8,11.149h4.637c1.838,0,3-.522,3-2.366,0-1.445-1.2-1.965-3-1.965H65.855Zm0,10.669h5.157c1.838,0,3.437-.522,3.437-2.727,0-1.686-1-2.607-3.077-2.607H65.855Z" transform="translate(42.177 0.291)" fill="#09552f"/>
</svg>
